<?xml version="1.0" encoding="UTF-8"?>
<svg width="329px" height="526px" viewBox="0 0 329 526" version="1.1" xmlns="http://www.w3.org/2000/svg" xmlns:xlink="http://www.w3.org/1999/xlink">
    <title>Combined Shape Copy</title>
    <g id="part-1-website" stroke="none" stroke-width="1" fill="none" fill-rule="evenodd">
        <g id="About-page-Copy" transform="translate(0.000000, -601.000000)" fill="#FAF1E6">
            <g id="about" transform="translate(-214.000750, 601.000000)">
                <path d="M270.00075,0 C318.780401,0 359.562517,34.2415165 369.62203,79.9994814 L481.878496,80.0001369 C480.067832,87.5469664 479.109047,95.4234136 479.109047,103.522967 C479.109047,144.930976 504.168294,180.507772 540.001886,196.021387 L499.091861,260.14721 C525.626603,278.564491 543.00075,309.253271 543.00075,344 C543.00075,400.333044 497.333794,446 441.00075,446 C422.189329,446 404.567292,440.907644 389.437967,432.026259 L329.484314,526.000468 C312.7884,513.892281 292.231799,506.749178 270.000631,506.749178 C247.769906,506.749178 227.213681,513.891997 210.517945,525.999745 L151.625019,433.686428 C137.171122,441.539305 120.606861,446 103.00075,446 C46.6677052,446 1.00074967,400.333044 1.00074967,344 C1.00074967,310.464822 17.1844132,280.709542 42.1677525,262.118146 L-4.17493731e-15,196.021117 C35.8332587,180.507359 60.8922151,144.930735 60.8922151,103.522967 C60.8922151,95.4234136 59.9334294,87.5469664 58.1227655,80.0001369 L170.379469,79.9994814 C180.438982,34.2415165 221.221099,0 270.00075,0 Z" id="Combined-Shape-Copy"></path>
            </g>
        </g>
    </g>
</svg>